<?xml version="1.0" encoding="utf-8"?>
<!-- Generator: Adobe Illustrator 25.2.1, SVG Export Plug-In . SVG Version: 6.00 Build 0)  -->
<svg version="1.1" id="Layer_1" xmlns="http://www.w3.org/2000/svg" xmlns:xlink="http://www.w3.org/1999/xlink" x="0px" y="0px"
	 viewBox="0 0 525.1 512" style="enable-background:new 0 0 525.1 512;" xml:space="preserve">
<style type="text/css">
	.st0{fill:#001E36;}
	.st1{fill:#31A8FF;}
</style>
<g id="Layer_2_1_">
	<g id="Surfaces">
		<g id="Photo_Surface">
			<g id="Outline_no_shadow">
				<path class="st0" d="M93,0h339.1c51.4,0,93,41.6,93,93v326c0,51.4-41.6,93-93,93H93c-51.4,0-93-41.6-93-93V93
					C0,41.6,41.6,0,93,0z"/>
			</g>
		</g>
	</g>
	<g id="Outlined_Mnemonics_Logos">
		<g id="Ps">
			<path class="st1" d="M118.2,359.1V133.9c0-1.5,0.7-2.4,2.2-2.4c3.7,0,7.2,0,12.3-0.2c5.3-0.2,10.7-0.2,16.6-0.4
				c5.9-0.2,12.3-0.2,19-0.4c6.8-0.2,13.3-0.2,19.9-0.2c17.9,0,32.8,2.2,45.1,6.8c10.9,3.7,21,9.8,29.3,17.9c7,7,12.5,15.5,16,24.9
				c3.3,9.2,5,18.6,5,28.4c0,18.8-4.4,34.4-13.1,46.6c-8.8,12.3-21,21.4-35.2,26.7c-14.9,5.5-31.3,7.4-49.2,7.4
				c-5.3,0-8.8,0-10.9-0.2c-2.2-0.2-5.3-0.2-9.4-0.2v70.2c0.2,1.5-0.9,2.8-2.4,3.1c-0.2,0-0.4,0-0.9,0h-41.6
				C119,361.9,118.2,361,118.2,359.1z M165.9,173.7v73.5c3.1,0.2,5.9,0.4,8.5,0.4H186c8.5,0,17.1-1.3,25.2-3.9
				c7-2,13.1-6.1,17.9-11.6c4.6-5.5,6.8-12.9,6.8-22.5c0.2-6.8-1.5-13.6-5-19.5c-3.7-5.7-9-10.1-15.3-12.5
				c-8.1-3.3-16.8-4.6-25.8-4.4c-5.7,0-10.7,0-14.9,0.2C170.4,173.3,167.4,173.5,165.9,173.7L165.9,173.7z"/>
			<path class="st1" d="M420.1,233.9c-6.6-3.5-13.6-5.9-21-7.4c-8.1-1.8-16.2-2.8-24.5-2.8c-4.4-0.2-9,0.4-13.1,1.5
				c-2.8,0.7-5.3,2.2-6.8,4.4c-1.1,1.8-1.8,3.9-1.8,5.9s0.9,3.9,2.2,5.7c2,2.4,4.6,4.4,7.4,5.9c5,2.6,10.3,5,15.5,7.2
				c11.8,3.9,23.2,9.4,33.7,16c7.2,4.6,13.1,10.7,17.3,18.2c3.5,7,5.3,14.7,5,22.5c0.2,10.3-2.8,20.6-8.5,29.1
				c-6.1,8.8-14.7,15.5-24.5,19.5c-10.7,4.6-23.8,7-39.6,7c-10.1,0-19.9-0.9-29.8-2.8c-7.7-1.3-15.3-3.7-22.3-7
				c-1.5-0.9-2.6-2.4-2.4-4.2v-38.1c0-0.7,0.2-1.5,0.9-2c0.7-0.4,1.3-0.2,2,0.2c8.5,5,17.5,8.5,27.1,10.7c8.3,2.2,17.1,3.3,25.8,3.3
				c8.3,0,14.2-1.1,18.2-3.1c3.5-1.5,5.9-5.3,5.9-9.2c0-3.1-1.8-5.9-5.3-8.8c-3.5-2.8-10.7-6.1-21.4-10.3
				c-11.2-3.9-21.4-9.2-31.1-15.8c-6.8-4.8-12.5-11.2-16.6-18.6c-3.5-7-5.3-14.7-5-22.3c0-9.4,2.6-18.4,7.4-26.5
				c5.5-8.8,13.6-15.8,23-20.1c10.3-5.3,23.2-7.7,38.7-7.7c9,0,18.2,0.7,27.1,2c6.6,0.9,12.9,2.6,18.8,5c0.9,0.2,1.8,1.1,2.2,2
				c0.2,0.9,0.4,1.8,0.4,2.6v35.7c0,0.9-0.4,1.8-1.1,2.2C422.1,234.3,421,234.3,420.1,233.9z"/>
		</g>
	</g>
</g>
</svg>
