<?xml version="1.0" encoding="utf-8"?>
<!-- Generator: Adobe Illustrator 25.2.1, SVG Export Plug-In . SVG Version: 6.00 Build 0)  -->
<svg version="1.1"
	 id="svg2365" inkscape:version="1.0.2 (1.0.2+r75+1)" xmlns:cc="http://creativecommons.org/ns#" xmlns:dc="http://purl.org/dc/elements/1.1/" xmlns:inkscape="http://www.inkscape.org/namespaces/inkscape" xmlns:rdf="http://www.w3.org/1999/02/22-rdf-syntax-ns#" xmlns:sodipodi="http://sodipodi.sourceforge.net/DTD/sodipodi-0.dtd" xmlns:svg="http://www.w3.org/2000/svg"
	 xmlns="http://www.w3.org/2000/svg" xmlns:xlink="http://www.w3.org/1999/xlink" x="0px" y="0px" viewBox="0 0 544 512"
	 style="enable-background:new 0 0 544 512;" xml:space="preserve">
<style type="text/css">
	.st0{fill:url(#path863_1_);}
	.st1{fill:#0078D3;}
	.st2{fill:url(#path928_1_);}
	.st3{fill:url(#path901_1_);}
</style>
<sodipodi:namedview  bordercolor="#666666" borderopacity="1.0" fit-margin-bottom="0" fit-margin-left="0" fit-margin-right="0" fit-margin-top="0" id="base" inkscape:current-layer="layer1" inkscape:cx="128.84185" inkscape:cy="140.03364" inkscape:document-rotation="0" inkscape:document-units="px" inkscape:pageopacity="0.0" inkscape:pageshadow="2" inkscape:snap-center="true" inkscape:snap-global="true" inkscape:snap-grids="false" inkscape:snap-intersection-paths="false" inkscape:snap-object-midpoints="true" inkscape:snap-smooth-nodes="true" inkscape:window-height="714" inkscape:window-maximized="1" inkscape:window-width="1366" inkscape:window-x="0" inkscape:window-y="0" inkscape:zoom="1" pagecolor="#ffffff" showgrid="true" units="px">
	<inkscape:grid  id="grid872" originx="0" originy="0" type="xygrid"></inkscape:grid>
</sodipodi:namedview>
<g id="layer1" transform="translate(-17.497595,-118.70461)" inkscape:groupmode="layer" inkscape:label="レイヤー 1">
	
		<linearGradient id="path863_1_" gradientUnits="userSpaceOnUse" x1="520.4976" y1="632.7045" x2="520.4976" y2="120.7047" gradientTransform="matrix(1 0 0 -1 -336 751.4092)">
		<stop  offset="0" style="stop-color:#104887"/>
		<stop  offset="1" style="stop-color:#0767B9"/>
	</linearGradient>
	<path id="path863" sodipodi:nodetypes="sssssssssss" class="st0" d="M199.5,118.7c-11.1,0-21,7.1-24.6,17.6l-156,460
		c-0.9,2.7-1.4,5.5-1.4,8.4c0,14.4,11.6,26,26,26h126c11.1,0,21-7.1,24.6-17.6l156-460c0.9-2.7,1.4-5.5,1.4-8.4
		c0-14.4-11.6-26-26-26L199.5,118.7z"/>
	<path id="path921" sodipodi:nodetypes="csscsscc" class="st1" d="M330.3,450.7l-152.8,2c-5.5,0.1-10,4.5-10,10
		c0,2.9,1.2,5.5,3.2,7.3l163.8,152.7c4.3,4,11,8,20.1,8l182.9,0L330.3,450.7z"/>
	
		<linearGradient id="path928_1_" gradientUnits="userSpaceOnUse" x1="597.2169" y1="341.0428" x2="646.459" y2="357.746" gradientTransform="matrix(1 0 0 -1 -336 751.4092)">
		<stop  offset="0" style="stop-color:#000000;stop-opacity:0"/>
		<stop  offset="0.5" style="stop-color:#000000;stop-opacity:5.000000e-02"/>
		<stop  offset="1" style="stop-color:#000000;stop-opacity:0.25"/>
	</linearGradient>
	<path id="path928" sodipodi:nodetypes="sccccscccccs" class="st2" d="M199.5,118.7c-11.1,0-21,7.1-24.6,17.6l-156,460L225.4,521
		l109.1,101.8c4.3,4,11,8,20.1,8h182.9l-207.2-180l-81.5,1.1l101.3-298.7l-24.6-34.4H199.5z"/>
	
		<linearGradient id="path901_1_" gradientUnits="userSpaceOnUse" x1="716.0444" y1="632.7045" x2="716.0444" y2="120.7047" gradientTransform="matrix(1 0 0 -1 -336 751.4092)">
		<stop  offset="0" style="stop-color:#3CCCF4"/>
		<stop  offset="1" style="stop-color:#2894E1"/>
	</linearGradient>
	<path id="path901" class="st3" d="M198.6,118.7c11.1,0,21,7.1,24.6,17.6l156,460c0.9,2.7,1.4,5.5,1.4,8.4c0,14.4-11.6,26-26,26
		h180.9c14.4,0,26-11.6,26-26c0-2.8-0.5-5.7-1.4-8.4l-156-460c-3.6-10.6-13.5-17.6-24.6-17.6H198.6z"/>
</g>
</svg>
