<?xml version="1.0" encoding="utf-8"?>
<!-- Generator: Adobe Illustrator 25.2.1, SVG Export Plug-In . SVG Version: 6.00 Build 0)  -->
<svg version="1.1" id="Layer_1" xmlns="http://www.w3.org/2000/svg" xmlns:xlink="http://www.w3.org/1999/xlink" x="0px" y="0px"
	 viewBox="0 0 642.6 512" style="enable-background:new 0 0 642.6 512;" xml:space="preserve">
<style type="text/css">
	.st0{fill-rule:evenodd;clip-rule:evenodd;fill:#7952B3;}
</style>
<path class="st0" d="M133.4,0C96.7,0,69.6,32.1,70.8,66.9c1.2,33.4-0.3,76.8-11.3,112.1c-10.9,35.4-29.4,57.9-59.6,60.7v32.5
	c30.2,2.9,48.7,25.3,59.6,60.7c10.9,35.3,12.4,78.6,11.3,112.1c-1.2,34.8,25.9,66.9,62.6,66.9h375.8c36.7,0,63.8-32.1,62.6-66.9
	c-1.2-33.4,0.3-76.8,11.3-112.1c10.9-35.4,29.4-57.9,59.6-60.7v-32.5c-30.2-2.9-48.7-25.3-59.6-60.7
	c-10.9-35.3-12.4-78.6-11.3-112.1C573,32.1,545.9,0,509.2,0L133.4,0L133.4,0z M435.7,315.2c0,47.9-35.8,77-95.1,77h-101
	c-6,0-10.9-4.9-10.9-10.9l0,0V130.7c0-6,4.9-10.9,10.9-10.9H340c49.5,0,81.9,26.8,81.9,67.9c0,28.9-21.8,54.7-49.7,59.3v1.5
	C410.2,252.7,435.7,278.9,435.7,315.2L435.7,315.2z M329.6,154.4H272v81.3h48.5c37.5,0,58.2-15.1,58.2-42.1
	C378.7,168.3,360.9,154.4,329.6,154.4L329.6,154.4z M272,268v89.6h59.7c39,0,59.7-15.7,59.7-45.1S370.1,268,329.2,268L272,268
	L272,268z"/>
</svg>
