<?xml version="1.0" encoding="utf-8"?>
<!-- Generator: Adobe Illustrator 25.2.1, SVG Export Plug-In . SVG Version: 6.00 Build 0)  -->
<svg version="1.1" id="Layer_1" xmlns="http://www.w3.org/2000/svg" xmlns:xlink="http://www.w3.org/1999/xlink" x="0px" y="0px"
	 viewBox="0 0 463.3 512" style="enable-background:new 0 0 463.3 512;" xml:space="preserve">
<style type="text/css">
	.st0{fill-rule:evenodd;clip-rule:evenodd;fill:#004482;}
	.st1{fill-rule:evenodd;clip-rule:evenodd;fill:#659AD2;}
	.st2{fill-rule:evenodd;clip-rule:evenodd;fill:#FFFFFF;}
	.st3{fill-rule:evenodd;clip-rule:evenodd;fill:#00599C;}
	.st4{fill:#FFFFFF;}
</style>
<g>
	<g>
		<path class="st0" d="M218.3,3.6c8.3-4.7,18.5-4.7,26.8,0c40.9,23,163.9,92,204.7,115c8.2,4.5,13.3,13.2,13.3,22.5V371
			c0,9.2-5.1,17.9-13.3,22.5l-204.7,115c-8.3,4.7-18.5,4.7-26.8,0l-204.7-115C5.4,389,0.3,380.4,0.3,371V141
			c-0.2-9.2,5-17.9,13.2-22.4C54.3,95.6,177.5,26.6,218.3,3.6z"/>
		<path class="st1" d="M3.9,382.8c-3.3-4.4-3.8-8.5-3.8-14.1V140.2c0-9.4,5.1-17.9,13.3-22.4C54.1,95,176.8,26.3,217.6,3.6
			c8.2-4.7,19.4-4.5,27.7,0.2c40.7,22.8,163,90.8,203.7,113.6c3.3,1.8,5.8,4.1,8,7.1L3.9,382.8z"/>
		<path class="st2" d="M231.6,85.4c94.1,0,170.5,76.4,170.5,170.5s-76.4,170.5-170.5,170.5S61.1,350.1,61.1,256
			S137.5,85.4,231.6,85.4z M231.6,170.6c47.1,0,85.3,38.3,85.3,85.3s-38.3,85.3-85.3,85.3S146.3,303,146.3,256
			S184.6,170.6,231.6,170.6z"/>
		<path class="st3" d="M456.8,124.5c6.4,5.9,6.2,14.8,6.2,21.8c0,46.3-0.3,177.8,0.2,224c0,4.8-1.5,10-3.9,13.8L226.6,256
			L456.8,124.5z"/>
	</g>
	<g>
		<g>
			<polygon class="st4" points="386,247.3 368.9,247.3 368.9,230.2 351.6,230.2 351.6,247.3 334.5,247.3 334.5,264.6 351.6,264.6 
				351.6,281.7 368.9,281.7 368.9,264.6 386,264.6 			"/>
		</g>
		<g>
			<polygon class="st4" points="450.3,247.3 433.2,247.3 433.2,230.2 415.9,230.2 415.9,247.3 398.8,247.3 398.8,264.6 415.9,264.6 
				415.9,281.7 433.2,281.7 433.2,264.6 450.3,264.6 			"/>
		</g>
	</g>
</g>
</svg>
