<?xml version="1.0" encoding="utf-8"?>
<!-- Generator: Adobe Illustrator 25.2.1, SVG Export Plug-In . SVG Version: 6.00 Build 0)  -->
<svg version="1.1" id="Layer_1" xmlns="http://www.w3.org/2000/svg" xmlns:xlink="http://www.w3.org/1999/xlink" x="0px" y="0px"
	 viewBox="0 0 306 338.2" style="enable-background:new 0 0 306 338.2;" xml:space="preserve">
<style type="text/css">
	.st0{fill-rule:evenodd;clip-rule:evenodd;fill:#283593;}
	.st1{fill-rule:evenodd;clip-rule:evenodd;fill:#5C6BC0;}
	.st2{fill-rule:evenodd;clip-rule:evenodd;fill:#FFFFFF;}
	.st3{fill-rule:evenodd;clip-rule:evenodd;fill:#3949AB;}
</style>
<g>
	<path class="st0" d="M144.2,2.3c5.5-3.1,12.2-3.1,17.7,0c27,15.2,108.3,60.8,135.3,76c5.4,3,8.8,8.7,8.8,14.9v151.9
		c0,6.1-3.4,11.8-8.8,14.9l-135.3,76c-5.5,3.1-12.2,3.1-17.7,0l-135.3-76c-5.4-3-8.8-8.7-8.8-14.9V93.1C0,87,3.4,81.3,8.8,78.3
		C35.8,63.1,117.2,17.5,144.2,2.3z"/>
	<path class="st1" d="M2.5,252.9C0.3,250,0,247.3,0,243.6V92.6c0-6.2,3.4-11.8,8.8-14.8c26.9-15.1,108-60.5,134.9-75.5
		c5.4-3.1,12.8-3,18.3,0.1c26.9,15.1,107.7,60,134.6,75.1c2.2,1.2,3.8,2.7,5.3,4.7L2.5,252.9z"/>
	<path class="st2" d="M153,56.4c62.2,0,112.7,50.5,112.7,112.7S215.2,281.8,153,281.8S40.3,231.3,40.3,169.1S90.8,56.4,153,56.4z
		 M153,112.7c31.1,0,56.4,25.3,56.4,56.4s-25.3,56.4-56.4,56.4s-56.4-25.3-56.4-56.4S121.9,112.7,153,112.7z"/>
	<path class="st3" d="M301.8,82.2c4.2,3.9,4.1,9.8,4.1,14.4c0,30.6-0.2,117.5,0.1,148c0,3.2-1,6.6-2.6,9.1l-153.7-84.6L301.8,82.2z"
		/>
</g>
</svg>
