<?xml version="1.0" encoding="utf-8"?>
<!-- Generator: Adobe Illustrator 25.2.1, SVG Export Plug-In . SVG Version: 6.00 Build 0)  -->
<svg version="1.1" id="Layer_1" xmlns="http://www.w3.org/2000/svg" xmlns:xlink="http://www.w3.org/1999/xlink" x="0px" y="0px"
	 viewBox="0 0 512 512" style="enable-background:new 0 0 512 512;" xml:space="preserve">
<style type="text/css">
	.st0{fill:#323232;}
	.st1{fill:#FEFEFE;}
</style>
<g id="Layer_2_1_">
	<g id="Layer_1-2">
		<path class="st0" d="M492.2,357.1l-10.1,20.5l-0.2,0.5l-9.5,15.8l-1.8,3.4v0c-0.4,0.4-0.8,0.9-1.3,1.3l-4.9,6.8l-0.4,0.5l-2.8,3.7
			l-0.4,0.5l-16.3,19.3l-1.6,1.7l-12,12l-1.7,1.6l-14.6,12.6l-0.5,0.4l-2.1,1.7l-0.5,0.4l-7.9,5.9l-0.5,0.4l-5.4,3.8
			c-0.2,0.3-0.4,0.5-0.6,0.8h0.1l-3,1.5l-12.5,7.7l-0.5,0.2L359,491.4l-1.9,1.1l-11.3,4.2l-1.1,0.4l-11.5,3.9l-1,0.2l-14.7,4l-1,0.1
			l-3.7,0.9l-1,0.1l-1.6,0.4l-1,0.1l-1.6,0.4l-1.2,0.1l-26.7,3.6h-1c-10.6,0.3-21.2,0.6-31.9,0.9c-1.6,0-3.3-0.2-4.9-0.4l-1.6-0.1
			l-6.3-0.5l-1.6-0.1l-26.2-3.5l-1.7-0.3l-1-0.1l-1.6-0.4l-1-0.2l-1.7-0.3l-3.1-0.7l-1.6-0.4l-13.7-3.6l-2.1-0.6l-11-3.7l-1.6-0.6
			l-16.3-6.6l-2.1-1l-10.8-5.4l-2.8-1.6l-1.9-1l-2.3-1.4l-10.9-6.6l-5.9-4l-4.1-2.9l-1.1-0.8l-7.2-5.5l-1.1-0.8l-1.5-1.2l-1.1-0.9
			l-8.3-7l-1.6-1.5l-3.5-3.2l-2.8-2.6l-11-11l-2.6-2.8l-6.3-7.1l-0.9-1.1l-8-9.9l-0.9-1.1c-0.8-1-1.5-2-2.3-3l-0.8-1.1
			c-1.5-2.1-3-4.1-4.4-6.2c-1.3-2-2.6-3.9-3.9-5.9l-8.8-14.6l-1.4-2.3l-9.3-19.3c-0.2-0.5-0.5-1-0.7-1.5c-1.2-3-2.4-6-3.6-9
			l-0.6-1.5c-0.9-2.5-1.7-4.9-2.6-7.4c-0.2-0.5-0.4-1-0.5-1.6c-0.6-1.7-1.1-3.5-1.6-5.2l-0.4-1.6l-0.6-2.1L9,325.6
			c-0.9-3.7-1.8-7.3-2.8-11L5.9,313c-0.8-4-1.5-8-2.3-12c-0.1-0.5-0.2-1.1-0.2-1.7L2,289.9c0-0.5-0.1-1-0.1-1.6
			c-0.4-5.1-1-10.2-1.3-15.3c-0.3-6.8-0.8-13.6-0.5-20.4c0.5-11.1,1.5-22.2,2.4-33.2c0.2-2.6,0.7-5.2,1-7.7l0.1-1
			c0.7-4,1.4-8,2.2-12.1l0.5-1.6c0.9-3.7,1.8-7.3,2.7-11c0.2-0.5,0.3-1.1,0.5-1.6c0.2-0.7,0.4-1.4,0.6-2.1s0.3-1.1,0.5-1.6
			c0.5-1.7,1.1-3.5,1.6-5.2l0.5-1.6l2.7-7.3c0.2-0.5,0.3-1.1,0.5-1.6l3.7-8.9l0.6-1.6c2.7-5.5,5.3-11.1,8.2-16.5
			c3.4-6.3,7.1-12.4,10.7-18.6c0.2-0.4,0.3-0.8,0.5-1.2c1.3-1.9,2.7-3.9,4-5.8c4.4-5.7,8.7-11.5,13.1-17.1
			c3.5-4.3,7.1-8.5,10.7-12.7l2.7-2.6l10.4-10.5l2.7-2.7c4.2-3.6,8.4-7.2,12.8-10.7c5.6-4.5,11.4-8.8,17.1-13.1l5.8-4
			c4.7-2.7,9.3-5.6,14.1-8.1c6.7-3.6,13.6-6.9,20.4-10.3c0.6-0.3,1.2-0.7,1.7-1l1.6-0.5l8.9-3.7l1.6-0.5l7.3-2.7l1.6-0.5l5.2-1.6
			l1.6-0.5l2.1-0.6l1.6-0.5l11-2.7l1.1-0.1L211,3.2l1.2-0.1l9.9-1.5l1.1-0.1c9.4-0.5,18.7-1.1,28.1-1.4c7-0.2,14-0.2,21,0
			c5.5,0.2,11,0.9,16.5,1.3l1.6,0.1l9.4,1.4l1.7,0.2l12,2.3l1.6,0.3l11,2.7l1.6,0.4l2,0.6l1.6,0.4l5.2,1.6l1.6,0.5l7.4,2.6l1.6,0.6
			l9,3.6l1.5,0.7l19.3,9.3l2.3,1.4l13.6,8.1l6.9,4.6l6.2,4.4l1.1,0.8l3.1,2.3l1.1,0.9l9.9,8l1.1,0.9l7.1,6.3l2.7,2.7L442.5,80
			l2.6,2.8l6.3,7.1l0.9,1l8,9.9l0.9,1.1l2.3,3.1l0.8,1.1l4.4,6.2l4.6,6.9c2.7,4.5,5.4,9.1,8.1,13.6c0.5,0.8,0.9,1.5,1.4,2.3
			c3.1,6.4,6.2,12.9,9.3,19.3l0.7,1.5l3.6,9l0.6,1.6c0.9,2.4,1.7,4.9,2.6,7.4c0.2,0.5,0.4,1.1,0.5,1.6l1.6,5.2l0.5,1.6l0.6,2.1
			l0.5,1.6c0.9,3.6,1.8,7.3,2.7,11c0.1,0.6,0.2,1.1,0.4,1.6c0.8,4,1.5,8,2.3,12c0.1,0.6,0.1,1.1,0.2,1.7l1.4,9.4
			c0,0.5,0.1,1,0.1,1.6c0.3,4.6,0.7,9.3,1,14c0.1,2.2,0.4,4.3,0.4,6.5c0,9.1,0.2,18.2,0,27.3c-0.2,6-0.9,11.9-1.4,17.9
			c0,0.4,0,0.7-0.1,1c-0.5,3.3-1,6.6-1.5,9.9l-0.1,1.1c-0.8,4.2-1.7,8.4-2.5,12.6c0,0.4-0.1,0.7-0.1,1l-3,11.5
			c-0.1,0.4-0.1,0.7-0.2,1l-0.9,2.6l-0.2,1l-1.9,5.8c-0.1,0.3-0.2,0.7-0.3,1l-2.8,7.8c-0.1,0.4-0.2,0.7-0.4,1.1
			c-1.1,2.9-2.1,5.8-3.1,8.6L492.2,357.1z M244.6,263.6c-0.5-8.2-0.7-15.9-1.6-23.6c-1.7-14.4-5.4-28.4-12.7-41.1
			c-13.5-23.8-32.6-39.4-61-42c-8.5-1-17.1-0.8-25.5,0.3c-21.7,3.3-39.8,13.6-53.4,30.8c-17,21.5-23.6,46.4-21.6,73.5
			c0.7,8.5,1.9,16.9,3.7,25.2c3.3,15.8,9.9,30.2,21,42.2c16.7,18.1,38.1,25.4,62.1,26.5c10,0.5,20.1-0.6,29.8-3.1
			c22.6-5.9,39.9-18.6,50.1-40c2.8-5.9,4.7-12.1,5.7-18.5c-0.5-0.1-1-0.2-1.5-0.2c-9.2,0-18.4,0-27.6,0c-1.4,0-1.9,0.5-2.2,1.9
			c-1.5,6.7-4.9,12.8-9.6,17.7c-10.2,10.4-23.1,14.4-37.2,15c-4.5,0.1-9-0.2-13.5-1c-13.8-2-25.5-7.9-34.6-18.5
			c-7.4-8.7-11.2-19-12.6-30.3c-0.6-4.8-0.9-9.6-1.4-14.8L244.6,263.6z M444,355.5c-0.9-1.3-1.4-2.1-2-2.8
			c-24.5-34.1-48.9-68.2-73.4-102.3c-1.2-1.7-1.3-2.8,0-4.5c21.7-28.9,43.3-57.8,64.9-86.7c0.5-0.7,1-1.5,1.8-2.6
			c-12.5,0-24.5,0.1-36.5,0c-1.7-0.1-3.4,0.7-4.3,2.2c-13,18.4-26.1,36.8-39.2,55.1c-2.9,4-5.7,8-8.8,12.2l-2-2.9
			c-14.7-21.5-29.5-43-44.1-64.5c-0.8-1.4-2.4-2.3-4-2.2c-12.2,0.1-24.5,0-36.7,0.1c-0.8,0-1.5,0.1-2.6,0.1c0.7,1,1.1,1.7,1.6,2.4
			c21.9,29.8,43.8,59.6,65.8,89.4c1.3,1.8,1.3,2.9,0,4.7c-23.8,33.2-47.5,66.5-71.2,99.9c-0.5,0.7-0.9,1.4-1.5,2.4h3.1
			c11.2,0,22.4-0.1,33.6,0c1.8,0.1,3.5-0.8,4.4-2.4c15.7-23.5,31.5-46.9,47.2-70.3l6.5-9.6l1.6,2.4c17.4,25.9,34.9,51.8,52.2,77.7
			c0.8,1.5,2.5,2.4,4.2,2.3c5-0.1,10,0,15,0L444,355.5z"/>
		<path class="st1" d="M244.6,263.6H101c0.5,5.1,0.8,10,1.4,14.8c1.3,11.3,5.1,21.6,12.6,30.3c9.1,10.7,20.8,16.6,34.5,18.5
			c4.5,0.8,9,1.1,13.5,1c14.1-0.6,27-4.6,37.2-15c4.8-4.9,8.1-11,9.6-17.7c0.3-1.4,0.8-1.9,2.2-1.9c9.2,0,18.4,0,27.6,0
			c0.5,0,1,0.1,1.5,0.2c-1,6.4-2.9,12.7-5.7,18.5c-10.2,21.4-27.5,34.1-50.1,40c-9.7,2.5-19.8,3.6-29.8,3.1
			c-23.9-1.1-45.4-8.3-62.1-26.5c-11.1-12-17.6-26.4-21-42.2c-1.8-8.3-3-16.8-3.7-25.2c-2-27.1,4.6-52,21.6-73.5
			c13.6-17.3,31.7-27.5,53.4-30.8c8.5-1.2,17-1.3,25.5-0.3c28.3,2.6,47.4,18.3,61,42c7.2,12.7,11,26.6,12.7,41.1
			C243.9,247.7,244,255.4,244.6,263.6z M101.4,237.5h109.5c-1.7-26.3-19-51-51-53.5C131.8,181.8,104.6,200.5,101.4,237.5z"/>
		<path class="st1" d="M444,355.5h-24.2c-5,0-10-0.1-15,0c-1.7,0.2-3.4-0.7-4.2-2.3c-17.4-25.9-34.8-51.8-52.2-77.7l-1.6-2.4
			l-6.5,9.6c-15.8,23.4-31.5,46.9-47.2,70.3c-0.9,1.6-2.6,2.5-4.4,2.4c-11.2-0.1-22.4,0-33.6,0h-3.1c0.6-1.1,1-1.8,1.5-2.4
			c23.7-33.3,47.5-66.6,71.3-99.9c1.3-1.8,1.3-2.9,0-4.7c-22-29.8-43.9-59.6-65.8-89.4c-0.5-0.7-1-1.4-1.6-2.4
			c1.1,0,1.8-0.1,2.6-0.1c12.2,0,24.5,0,36.7-0.1c1.6-0.1,3.2,0.7,4,2.2c14.7,21.5,29.4,43,44.1,64.5l2,2.9c3-4.2,5.9-8.2,8.8-12.2
			c13.1-18.4,26.2-36.8,39.2-55.1c0.9-1.5,2.6-2.3,4.3-2.2c12,0.1,24,0,36.5,0c-0.7,1.1-1.2,1.8-1.8,2.6
			c-21.6,28.9-43.3,57.8-64.9,86.7c-1.3,1.7-1.3,2.8,0,4.5c24.5,34.1,49,68.2,73.4,102.3C442.6,353.4,443.1,354.1,444,355.5z"/>
		<path class="st0" d="M101.4,237.5c3.2-37.1,30.4-55.8,58.4-53.5c32,2.6,49.3,27.2,51,53.5H101.4z"/>
	</g>
</g>
</svg>
