<?xml version="1.0" encoding="utf-8"?>
<!-- Generator: Adobe Illustrator 25.2.1, SVG Export Plug-In . SVG Version: 6.00 Build 0)  -->
<svg version="1.1" id="Layer_1" xmlns="http://www.w3.org/2000/svg" xmlns:xlink="http://www.w3.org/1999/xlink" x="0px" y="0px"
	 viewBox="0 0 413.1 512" style="enable-background:new 0 0 413.1 512;" xml:space="preserve">
<style type="text/css">
	.st0{fill:#6762A6;}
	.st1{fill:#FFFFFF;}
</style>
<g>
	<path class="st0" d="M364.2,512H48.9C21.9,512,0,490.1,0,463.2V48.8C0,21.9,21.9,0,48.9,0h315.3c27,0,48.8,21.9,48.8,48.8v414.3
		C413,490.1,391.1,512,364.2,512L364.2,512L364.2,512z"/>
	<path class="st1" d="M258.8,441.6V238.2c0,0,13.2-48.7-162.9,19.9c-0.3,0.9-0.3-188-0.3-188l57.5-0.4v121
		c0,0,161.1-63.5,161.1,48.1v202.6L258.8,441.6L258.8,441.6L258.8,441.6z M291.6,143h-61c22-26.9,41.9-72.9,41.9-72.9h63.1
		C335.6,70.1,324.8,100.1,291.6,143L291.6,143L291.6,143z M96.6,441.2V325.4l57.9,57.9L96.6,441.2L96.6,441.2z"/>
</g>
</svg>
