<?xml version="1.0" encoding="utf-8"?>
<!-- Generator: Adobe Illustrator 25.2.1, SVG Export Plug-In . SVG Version: 6.00 Build 0)  -->
<svg version="1.1" id="Layer_1" xmlns="http://www.w3.org/2000/svg" xmlns:xlink="http://www.w3.org/1999/xlink" x="0px" y="0px"
	 viewBox="0 0 512 512" style="enable-background:new 0 0 512 512;" xml:space="preserve">
<style type="text/css">
	.st0{fill:none;}
	.st1{fill:#FC490B;}
</style>
<g>
	<polygon class="st0" points="389.8,209.1 184.5,209.1 178,148.8 394.5,148.8 398.9,93.7 113.1,93.7 126.5,265 328.3,265 
		323.2,335.2 257.7,352.9 191.8,335.2 191.8,291.2 128.6,291.2 135.6,380.9 256,419.1 376.4,380.9 	"/>
	<path class="st1" d="M464.1,0H47.9H32l1,10.8l39.2,442.9l0.6,7.1l162.8,45.5l15.6,5c1.5,0.5,3.1,0.7,4.7,0.7l0,0l0,0
		c1.6,0,3.2-0.2,4.7-0.7l15.7-5l162.7-45.5l0.6-7l39.3-443L480,0H464.1z M256,419.1l-120.4-38.2l-7-89.8h63.2v44l65.9,17.7
		l65.5-17.7l5.1-70.2H126.5L113.1,93.7h285.7l-4.3,55.2H178l6.5,60.3h205.3l-13.4,171.8L256,419.1z"/>
</g>
</svg>
