<?xml version="1.0" encoding="utf-8"?>
<!-- Generator: Adobe Illustrator 25.2.1, SVG Export Plug-In . SVG Version: 6.00 Build 0)  -->
<svg version="1.1" id="Layer_1" xmlns="http://www.w3.org/2000/svg" xmlns:xlink="http://www.w3.org/1999/xlink" x="0px" y="0px"
	 viewBox="0 0 512 512" style="enable-background:new 0 0 512 512;" xml:space="preserve">
<style type="text/css">
	.st0{fill:#F0DB4F;}
	.st1{fill:#323330;}
</style>
<path class="st0" d="M0,0h512v512H0V0z"/>
<path class="st1" d="M470.1,389.9c-3.7-23.4-19-43-64.1-61.3c-15.7-7.2-33.1-12.4-38.4-24.2c-1.8-6.9-2.1-10.8-0.9-15
	c3.4-13.6,19.6-17.8,32.4-13.9c8.3,2.8,16.1,9.2,20.8,19.3c22.1-14.3,22-14.2,37.5-24c-5.6-8.8-8.7-12.8-12.4-16.5
	c-13.3-14.8-31.4-22.5-60.3-21.9c-5,0.6-10.1,1.3-15.1,1.9c-14.5,3.7-28.2,11.2-36.3,21.4c-24.2,27.5-17.3,75.6,12.2,95.4
	c29.1,21.8,71.7,26.8,77.2,47.2c5.3,25-18.3,33-41.9,30.2c-17.3-3.6-27-12.4-37.4-28.4c-19.2,11.1-19.2,11.1-38.9,22.4
	c4.7,10.2,9.6,14.8,17.4,23.7c37.1,37.6,129.9,35.8,146.5-21.2C469.2,423,473.7,410,470.1,389.9z M278.3,235.3h-47.9
	c0,41.4-0.2,82.4-0.2,123.8c0,26.3,1.4,50.5-2.9,57.9c-7,14.6-25.2,12.8-33.4,9.9c-8.4-4.1-12.7-10-17.7-18.3
	c-1.4-2.4-2.4-4.2-2.7-4.4c-13,7.9-25.9,15.9-38.9,23.8c6.5,13.3,16,24.8,28.2,32.3c18.3,11,42.8,14.3,68.4,8.4
	c16.7-4.9,31.1-14.9,38.6-30.3c10.9-20.1,8.6-44.4,8.5-71.3C278.6,323.3,278.3,279.4,278.3,235.3L278.3,235.3z"/>
</svg>
