<?xml version="1.0" encoding="utf-8"?>
<!-- Generator: Adobe Illustrator 25.2.1, SVG Export Plug-In . SVG Version: 6.00 Build 0)  -->
<svg version="1.1" id="Layer_1" xmlns="http://www.w3.org/2000/svg" xmlns:xlink="http://www.w3.org/1999/xlink" x="0px" y="0px"
	 viewBox="0 0 512 512" style="enable-background:new 0 0 512 512;" xml:space="preserve">
<style type="text/css">
	.st0{fill:#E48E00;}
</style>
<path class="st0" d="M471.5,393.6c-27.9-0.8-49.3,1.8-67.5,9.5c-5.2,2.2-13.4,2.2-14.3,8.7c2.8,3,3.3,7.5,5.6,11.1
	c4.4,7,11.7,16.5,18.3,21.4c7.2,5.4,14.5,11.2,22.2,15.9c13.7,8.3,28.9,13.1,42.1,21.4c7.8,4.9,15.4,11.1,23,16.7
	c3.7,2.7,6.2,7,11.1,8.7v-0.8c-2.6-3.3-3.2-7.7-5.6-11.1l-10.3-10.3c-10.1-13.4-22.9-25.2-36.5-34.9c-10.9-7.8-35.2-18.3-39.7-31
	l-0.8-0.8c7.7-0.9,16.7-3.7,23.8-5.6c11.9-3.2,22.6-2.4,34.9-5.6l16.7-4.8v-3.2c-6.2-6.4-10.7-14.9-17.5-20.6
	c-17.8-15.1-37.2-30.3-57.2-42.9c-11.1-7-24.8-11.5-36.5-17.5c-3.9-2-10.9-3-13.5-6.4c-6.2-7.9-9.5-17.8-14.3-27
	c-10-19.2-19.8-40.2-28.6-60.4c-6-13.8-10-27.3-17.5-39.7c-36.1-59.3-74.9-95.1-135-130.2C161.7,47,146.3,44.1,130,40.2l-26.2-1.6
	c-5.3-2.2-10.9-8.7-15.9-11.9c-19.9-12.6-71-40-85.8-4c-9.3,22.7,13.9,44.9,22.2,56.4c5.8,8.1,13.3,17.1,17.5,26.2
	c2.7,6,3.2,12,5.6,18.3c5.8,15.5,10.8,32.5,18.3,46.8c3.8,7.3,7.9,14.9,12.7,21.4c2.9,4,7.9,5.8,8.7,11.9
	c-4.9,6.9-5.2,17.5-7.9,26.2c-12.4,39.1-7.7,87.8,10.3,116.7c5.5,8.9,18.6,28,36.5,20.6c15.7-6.4,12.2-26.2,16.7-43.7
	c1-3.9,0.4-6.9,2.4-9.5v0.8l14.3,28.6c10.6,17,29.3,34.8,45.3,46.9c8.2,6.2,14.8,17,25.4,20.6v-0.8h-0.8c-2.1-3.2-5.3-4.5-8-7.1
	c-6.2-6.1-13.1-13.7-18.3-20.6c-14.5-19.6-27.3-41.1-38.9-63.5c-5.6-10.7-10.4-22.5-15.1-33.4c-1.8-4.2-1.8-10.5-5.6-12.7
	c-5.2,8-12.7,14.4-16.7,23.8c-6.3,15-7.2,33.4-9.5,52.4l-1.6,0.8c-11.1-2.7-15-14.1-19.1-23.8c-10.4-24.7-12.3-64.5-3.2-92.9
	c2.4-7.4,13.1-30.5,8.7-37.3c-2.1-6.8-8.9-10.7-12.7-15.9c-4.7-6.4-9.4-14.8-12.7-22.2c-8.5-19.3-12.5-40.9-21.4-60.3
	c-4.3-9.3-11.5-18.7-17.5-27c-6.6-9.2-14-15.9-19.1-27c-1.8-3.9-4.3-10.3-1.6-14.3c0.9-2.7,2.1-3.9,4.8-4.8
	c4.6-3.5,17.4,1.2,22.2,3.2C57,32.8,67.6,37.8,78.4,45c5.2,3.4,10.4,10.1,16.7,11.9h7.1c11.2,2.6,23.7,0.8,34.1,4
	c18.5,5.6,35,14.3,50,23.8c45.8,28.9,83.2,70,108.8,119.1c4.1,7.9,5.9,15.4,9.5,23.8c7.3,16.9,16.5,34.3,23.8,50.8
	c7.3,16.5,14.4,33.1,24.6,46.9c5.4,7.2,26.3,11.1,35.7,15.1c6.6,2.8,17.5,5.7,23.8,9.5c12,7.3,23.7,15.9,34.9,23.8
	C453.3,377.7,470.6,386.4,471.5,393.6z M116.5,91c-5.8-0.1-9.9,0.6-14.3,1.6v0.8h0.8c2.8,5.7,7.7,9.4,11.1,14.3l8,16.7l0.8-0.8
	c4.9-3.5,7.2-9,7.1-17.5c-2-2.1-2.3-4.7-4-7.1C123.8,95.7,119.4,93.8,116.5,91z"/>
</svg>
