<?xml version="1.0" encoding="utf-8"?>
<!-- Generator: Adobe Illustrator 25.2.1, SVG Export Plug-In . SVG Version: 6.00 Build 0)  -->
<svg version="1.1" id="Layer_1" xmlns="http://www.w3.org/2000/svg" xmlns:xlink="http://www.w3.org/1999/xlink" x="0px" y="0px"
	 viewBox="0 0 512 512" style="enable-background:new 0 0 512 512;" xml:space="preserve">
<style type="text/css">
	.st0{fill-rule:evenodd;clip-rule:evenodd;fill:#FF6C37;}
	.st1{fill-rule:evenodd;clip-rule:evenodd;fill:#FFFFFF;}
</style>
<g>
	<path class="st0" d="M458.6,99.5C372.1-12.4,211.4-33,99.5,53.4C-12.4,139.9-33,300.6,53.4,412.5
		c86.4,111.9,247.2,132.5,359.1,46.1C524.4,372.2,545,211.4,458.6,99.5L458.6,99.5z"/>
	<path class="st1" d="M306.3,169.6c-18.4,8.4-48.4,33.9-97.1,82.3l13.8,13.8l4.6,4.6l94.1-94.1c2.9-2.9,6.7-4.4,10.5-5.1
		C325.3,166,318.5,164,306.3,169.6 M347.8,205.5l-98.5,86.5c8.8,8.8,13.6,13.6,16,16.1C304.4,271.1,341.5,233.4,347.8,205.5
		 M179.6,282c0.1,0.2,0.3,0.2,0.4,0.2l39.9-8.6l-16.2-16.1l-24.1,24.1C179.6,281.6,179.5,281.7,179.6,282 M360.5,148.3l33.4-33.4
		c-6.7-5.3-14.9-7.8-23.1-7.8c-9.6,0-19.3,3.7-26.6,10.9c-7.1,7.1-11,16.5-11,26.6c0,10,3.9,19.5,11,26.6
		c10.9,10.9,27.4,14.1,41.6,7.9l-25.3-25.3c-0.7-0.7-1.1-1.7-1.1-2.7C359.4,150,359.8,149,360.5,148.3"/>
	<path class="st1" d="M396.3,157c-0.7,0-1.3-0.2-1.9-0.7c-1.2-1-1.4-2.9-0.4-4.2c2.2-2.7,2.7-6.5,1.1-9.6c-0.7-1.5-0.1-3.2,1.3-4
		c1.5-0.7,3.2-0.1,4,1.3c2.6,5.2,1.9,11.5-1.9,16C398,156.6,397.2,157,396.3,157 M399.5,120.1L368.7,151l24.1,24.1
		c1.7-1.2,3.2-2.5,4.7-3.9c7.1-7.1,11-16.6,11-26.6C408.5,135.5,405.3,127,399.5,120.1 M327.2,181.7l-93.8,93.8l10.8,10.8l99.4-87.3
		c2.5-2.2,3.9-5.3,4-8.6c0.1-3.3-1.1-6.5-3.5-8.8C339.4,177.1,331.8,177.1,327.2,181.7 M152.1,381.9
		C152.1,381.9,152.1,381.9,152.1,381.9c44.8-22.5,80.9-45.5,107.5-68.6l-15.2-15.2l-39.9,6.2l-79,79l25.3,25.3
		c0.6,0.6,1.2,0.4,1.7,0.2c0.4-0.2,0.9-0.7,0.7-1.5l-4.3-18.5C148.3,386,149.6,383.2,152.1,381.9 M143,411.5l-22.8-22.8L100.9,408
		c-0.1,0-0.1,0.1-0.1,0.3c0.1,0.2,0.2,0.2,0.3,0.2L143,411.5z M214.8,294.1L214.8,294.1c0.1,0,0.3,0,0.4,0l22.4-2.9l-9.9-10
		L214.8,294.1z"/>
	<path class="st0" d="M400.5,139.8c-0.7-1.5-2.5-2.1-4-1.3c-1.5,0.7-2,2.5-1.3,4c1.6,3.1,1.2,6.9-1.1,9.6c-1.1,1.3-0.9,3.1,0.4,4.2
		c0.5,0.4,1.2,0.7,1.9,0.7c0.9,0,1.7-0.4,2.3-1.1C402.4,151.4,403.1,145.1,400.5,139.8"/>
</g>
</svg>
