<?xml version="1.0" encoding="utf-8"?>
<!-- Generator: Adobe Illustrator 25.2.1, SVG Export Plug-In . SVG Version: 6.00 Build 0)  -->
<svg version="1.1" id="Layer_1" xmlns="http://www.w3.org/2000/svg" xmlns:xlink="http://www.w3.org/1999/xlink" x="0px" y="0px"
	 viewBox="0 0 540.2 512" style="enable-background:new 0 0 540.2 512;" xml:space="preserve">
<style type="text/css">
	.st0{fill:#41E0FD;}
</style>
<g>
	<path id="_Group_" class="st0" d="M194,254.7c4.1-8.3,8.3-16.6,12.7-24.7l0-0.1l4.7-9.1l6.9-11.4l0-0.1c2.6-4.4,5.2-8.8,7.9-13.1
		l4.7-7.8c6.3-10.5,11.4-18.1,19.4-29.1c4.3-5.9,8.4-11.2,14.9-19.3l0,0l0.3-0.4l0.1-0.2c2.6-3.4,5.3-6.7,7.9-9.8l0.1-0.1l0.1-0.1
		c6-7.5,12.2-15,18.3-22.3l2.4-2.9v-43h-4.4c-2.3-2.2-4.7-4.4-7.1-6.5c-19.4-17.2-38.7-30.7-57.4-40.1C206.4,4.9,188.6,0,172.8,0
		c-11.3,0-21.3,2.5-29.9,7.5c-8.3,4.8-15.2,11.9-20.6,21.2c-5.1,8.7-8.8,19.3-11.2,31.4c-4.5,23.4-3.5,52.8,2.8,84.9
		c0.8,4,1.7,8.1,2.6,12.2c-5,1.5-9.9,3.1-14.5,4.7c-30.3,10.6-55.6,24.3-73.2,39.9c-9.1,8-16.2,16.6-21,25.3
		C2.6,236.3,0,245.9,0,255.4c0,19,10.5,38.3,30.5,55.8c18.8,16.5,45.4,30.9,76.8,41.6c2.9,1,5.9,2,8.9,2.9c-1,4.6-2,9.1-2.9,13.7
		c-6,31.5-6.7,60.3-2,83.4c2.4,11.9,6.2,22.3,11.4,30.9c5.5,9.1,12.4,16.1,20.6,20.8c8.7,5,18.9,7.5,30.3,7.5
		c15.6,0,33-4.6,51.8-13.7c18.4-8.9,37.2-21.7,55.9-38.1c2.9-2.5,5.8-5.2,8.8-8h4.4v-44.3l-1.6-2l-0.8-0.9l-20.3-25l-11.3-13.9
		c-5.7-7-14.8-20-25.6-36.6c-8.6-13.2-14.9-23.7-17.9-28.8l-0.3-0.6c-5.2-9-9.1-16.2-12.2-22c-3.9-7.3-7.7-14.7-11.4-22.1L194,254.7
		L194,254.7z M173.4,210.8c-3.4-8.8-6.6-17.5-9.4-26.1c8.8-1.8,17.9-3.4,27.2-4.9c-3.1,5.1-6.2,10.3-9.1,15.4
		C179.2,200.4,176.3,205.6,173.4,210.8z M163.7,328.1c2.9-8.8,6.2-17.9,9.7-27.1c2.9,5.3,5.8,10.5,8.8,15.6
		c3.1,5.4,6.3,10.8,9.6,16.1C182.1,331.5,172.7,329.9,163.7,328.1L163.7,328.1z M148.1,71.4c2.3-15.7,7.4-26.9,14.1-30.7
		c2.8-1.6,6.4-2.4,10.9-2.4c9.8,0,22.4,3.8,36.5,11.1c15.3,7.9,31.9,19.6,48,33.9c1,0.9,2,1.8,3.1,2.8
		c-14.2,15.7-28.1,33.1-41.6,51.8c-22.9,2.2-44.9,5.6-65.4,9.9c-0.7-3.3-1.4-6.5-2.1-9.8l-0.1-0.3
		C146.6,112.6,145.4,89.6,148.1,71.4L148.1,71.4z M150.9,256c-9.7,21.3-17.9,42.4-24.5,62.8c-2.3-0.7-4.5-1.5-6.8-2.2
		c-26.1-8.9-47.9-20.5-63-33.4c-11.5-9.9-18.4-20.3-18.4-27.8c0-7.8,6.9-17.8,18.9-27.5c14-11.3,33.8-21.6,57.4-29.8
		c4-1.4,8.1-2.7,12.2-4C133.3,214.2,141.4,235,150.9,256L150.9,256z M151,376.5c0.7-3.8,1.5-7.6,2.4-11.4
		c20.3,4.2,42.5,7.3,66.2,9.3c13.6,18.9,27.6,36.4,41.9,52.2c-1.8,1.6-3.5,3.2-5.3,4.8c-20.7,18.1-41.4,31.1-60,37.8l-0.4,0.1
		c-8.3,2.9-15.8,4.4-22.1,4.4c-4.7,0-8.4-0.8-11.2-2.4c-6.7-3.9-12-14.8-14.4-30.1C145.3,423.4,146.3,401.1,151,376.5L151,376.5z"/>
	<path class="st0" d="M525.8,276.5c-9.5-17.5-23.5-28.9-42-34.1c-0.3-0.1-0.5-0.4-0.5-0.7c0-0.3,0.1-0.5,0.3-0.7
		c13.8-7.7,24.4-18.6,31.8-32.5c7.5-14,11.2-30.9,11.2-50.6c0-32.6-8.2-56.8-24.6-72.9c-16.4-16.1-38.2-24.1-65.4-24.1H289.7
		c-0.3,0-0.6,0.3-0.6,0.7v389.8c0,0.4,0.3,0.7,0.6,0.7h138.7c19.5,0,36.4-2.9,50.5-8.6c14.2-5.7,25.7-13.4,34.8-23
		c9.1-9.6,15.7-21.2,20-34.5c4.2-13.3,6.4-27.6,6.4-43C540.2,316.4,535.4,294.3,525.8,276.5L525.8,276.5z M342.4,117.1
		c0-0.4,0.3-0.7,0.6-0.7h86.2c14.5,0,25.5,4.1,33.2,12.1c7.7,8,11.5,21.9,11.5,41.7c0,17.6-4.2,30.9-12.8,40.4s-19.1,14-31.9,14H343
		c-0.3,0-0.6-0.3-0.6-0.7L342.4,117.1z M473.9,380c-8.8,10.9-21.4,16.2-37.6,16.2H343c-0.3,0-0.6-0.3-0.6-0.7V274.6
		c0-0.4,0.3-0.7,0.6-0.7h93.4c16.2,0,28.6,5,37.6,15.6c9,10.5,13.4,25.3,13.4,44.8C487.4,353.9,482.9,369.3,473.9,380L473.9,380z"/>
</g>
</svg>
