<?xml version="1.0" encoding="utf-8"?>
<!-- Generator: Adobe Illustrator 25.2.1, SVG Export Plug-In . SVG Version: 6.00 Build 0)  -->
<svg version="1.1" id="Layer_1" xmlns="http://www.w3.org/2000/svg" xmlns:xlink="http://www.w3.org/1999/xlink" x="0px" y="0px"
	 viewBox="0 0 537.2 512" style="enable-background:new 0 0 537.2 512;" xml:space="preserve">
<style type="text/css">
	.st0{fill:#764ABC;}
</style>
<path class="st0" d="M372.7,357.5c19.9-2.1,35-19.2,34.3-39.8c-0.6-20.5-17.8-37.1-38.4-37.1h-1.4c-21.3,0.7-37.7,18.5-37.1,39.8
	c0.7,10.3,4.8,19.2,11,25.4c-23.4,46-59,79.6-112.6,107.8c-36.3,19.2-74.2,26.1-111.9,21.3c-30.9-4.1-54.9-17.8-70-40.4
	c-21.9-33.6-24-70-5.5-106.4c13.1-26.1,33.6-45.3,46.7-54.9c-2.7-9-6.8-24-9-35c-99.5,72-89.2,169.5-59,215.5
	c22.6,34.3,68.7,55.6,119.4,55.6c13.7,0,27.5-1.4,41.2-4.8C268.3,487.2,334.9,435.1,372.7,357.5L372.7,357.5z M493.4,272.4
	c-52.1-61-129-94.7-216.9-94.7h-11c-6.2-12.3-19.2-20.5-33.6-20.5h-1.4c-21.3,0.7-37.7,18.5-37.1,39.8c0.7,20.5,17.8,37.1,38.4,37.1
	h1.4c15.1-0.7,28.1-10.3,33.6-23.4h12.3c52.1,0,101.5,15.1,146.2,44.7c34.3,22.6,59,52.1,72.8,87.8c11.7,28.9,11,57-1.4,81
	c-19.2,36.3-51.5,56.2-94.1,56.2c-27.5,0-53.5-8.2-67.3-14.4c-7.6,6.8-21.3,17.8-30.9,24.8c29.5,13.7,59.7,21.3,88.6,21.3
	c65.8,0,114.6-36.3,133.1-72.8C546.3,399.4,544.9,330.7,493.4,272.4L493.4,272.4z M144.9,369.2c0.7,20.5,17.8,37.1,38.4,37.1h1.4
	c21.3-0.6,37.7-18.5,37.1-39.8c-0.6-20.5-17.8-37.1-38.4-37.1H182c-1.4,0-3.5,0-4.8,0.6c-28.1-46.7-39.8-97.4-35.7-152.3
	c2.7-41.2,16.4-76.9,40.4-106.4c19.9-25.4,58.4-37.7,84.4-38.4c72.8-1.4,103.6,89.2,105.6,125.6c9,2.1,24,6.8,34.3,10.3
	C398.1,57.6,329.4,0,263.6,0c-61.7,0-118.7,44.7-141.4,110.5c-31.6,87.8-11,172.2,27.5,238.8C146.3,354.1,144.1,361.6,144.9,369.2
	L144.9,369.2z"/>
</svg>
