<?xml version="1.0" encoding="utf-8"?>
<!-- Generator: Adobe Illustrator 25.2.1, SVG Export Plug-In . SVG Version: 6.00 Build 0)  -->
<svg version="1.1" id="Layer_1" xmlns="http://www.w3.org/2000/svg" xmlns:xlink="http://www.w3.org/1999/xlink" x="0px" y="0px"
	 viewBox="0 0 682.7 512" style="enable-background:new 0 0 682.7 512;" xml:space="preserve">
<style type="text/css">
	.st0{fill:#CF649A;}
</style>
<path class="st0" d="M587.2,294.5c-23.9,0.1-44.6,5.9-61.9,14.4c-6.4-12.7-12.8-23.7-13.9-32c-1.2-9.6-2.7-15.5-1.2-27
	c1.5-11.5,8.1-27.8,8.1-29.1c-0.1-1.2-1.5-7.1-15.2-7.2c-13.7-0.1-25.6,2.7-27,6.3c-1.3,3.6-4,11.9-5.7,20.4
	c-2.4,12.5-27.5,57-41.8,80.3c-4.7-9.1-8.7-17.1-9.5-23.5c-1.2-9.6-2.7-15.5-1.2-27c1.5-11.5,8.1-27.8,8.1-29.1
	c-0.1-1.2-1.5-7.1-15.2-7.2c-13.7-0.1-25.6,2.7-27,6.3c-1.3,3.6-2.8,12.1-5.7,20.4c-2.8,8.3-36.2,82.5-44.8,101.8
	c-4.4,9.9-8.3,17.7-11.1,23.1c-2.8,5.3-0.1,0.4-0.4,0.9c-2.4,4.5-3.7,7.1-3.7,7.1v0.1c-1.9,3.3-3.9,6.5-4.8,6.5
	c-0.7,0-2-8.9,0.3-21.2c4.9-25.8,16.9-65.9,16.8-67.4c0-0.7,2.3-7.7-7.7-11.3c-9.7-3.6-13.2,2.4-14,2.4c-0.8,0-1.5,2.1-1.5,2.1
	s10.8-45.2-20.7-45.2c-19.7,0-47,21.5-60.4,41.1c-8.5,4.7-26.7,14.5-45.9,25.1c-7.3,4-14.9,8.3-22.1,12.1l-1.5-1.6
	c-38.2-40.7-108.7-69.5-105.8-124.2c1.1-19.9,8-72.3,135.6-135.8c104.5-52,188.1-37.8,202.7-6c20.7,45.4-44.7,129.7-153.3,141.8
	c-41.4,4.7-63.1-11.3-68.6-17.3c-5.7-6.3-6.5-6.5-8.7-5.3c-3.5,1.9-1.3,7.5,0,10.8c3.2,8.4,16.5,23.3,39.2,30.8
	c19.9,6.5,68.4,10.1,127.1-12.5C390.6,193,442,122.3,426.9,63.2C411.6,3,311.8-16.8,217.5,16.7c-56.2,20-117,51.2-160.8,92.2
	c-52,48.6-60.3,91-56.8,108.6C12,280.4,98.6,321.3,133.3,351.6c-1.7,0.9-3.3,1.9-4.8,2.7c-17.3,8.5-83.4,43.1-99.9,79.7
	c-18.7,41.4,2.9,71.1,17.3,75.1c44.6,12.4,90.2-9.9,114.9-46.6c24.5-36.7,21.6-84.3,10.3-106.1l-0.4-0.8l13.6-8
	c8.8-5.2,17.5-10,25.1-14.1c-4.3,11.6-7.3,25.3-8.9,45.4c-1.9,23.5,7.7,53.9,20.4,65.9c5.6,5.2,12.3,5.3,16.4,5.3
	c14.7,0,21.3-12.1,28.7-26.7c9.1-17.7,17.1-38.3,17.1-38.3s-10,55.6,17.3,55.6c10,0,20-12.9,24.5-19.6v0.1c0,0,0.3-0.4,0.8-1.3
	c0.5-0.8,1.1-1.7,1.6-2.5v-0.1c4-6.9,12.9-22.8,26.3-49.1c17.2-33.9,33.8-76.3,33.8-76.3s1.6,10.4,6.5,27.5
	c2.9,10.1,9.3,21.2,14.3,32c-4,5.6-6.4,8.8-6.4,8.8l0.1,0.1c-3.2,4.3-6.8,8.8-10.5,13.3c-13.6,16.3-29.9,34.8-32,40.2
	c-2.5,6.3-2,10.9,2.9,14.7c3.6,2.7,10,3.2,16.8,2.7c12.3-0.8,20.8-3.9,25.1-5.7c6.7-2.4,14.3-6,21.6-11.3
	c13.3-9.9,21.5-23.9,20.7-42.6c-0.4-10.3-3.7-20.4-7.9-30c1.2-1.7,2.4-3.5,3.6-5.3c21.1-30.8,37.4-64.7,37.4-64.7s1.6,10.4,6.5,27.5
	c2.5,8.7,7.6,18.1,12.1,27.5c-19.7,16.1-32.2,34.8-36.4,47.1c-7.9,22.7-1.7,33,9.9,35.4c5.2,1.1,12.7-1.3,18.3-3.7
	c6.9-2.3,15.3-6.1,23.1-11.9c13.3-9.9,26.2-23.6,25.5-42.2c-0.4-8.5-2.7-16.9-5.7-24.9c16.8-6.9,38.6-10.9,66.2-7.6
	c59.4,6.9,71.1,44,68.8,59.5c-2.3,15.5-14.7,24-18.8,26.7c-4.1,2.5-5.5,3.5-5.1,5.3c0.5,2.8,2.4,2.7,6,2.1
	c4.9-0.8,31.2-12.7,32.3-41.2C683.8,334.3,648.9,294.3,587.2,294.5L587.2,294.5z M129.3,449c-19.6,21.5-47.2,29.6-59,22.7
	c-12.7-7.3-7.7-39,16.4-61.8c14.7-13.9,33.8-26.7,46.3-34.6c2.8-1.7,7.1-4.3,12.1-7.3c0.8-0.5,1.3-0.8,1.3-0.8
	c0.9-0.5,2-1.2,3.1-1.9C158.5,397.9,150,426.5,129.3,449L129.3,449z M272.7,351.5c-6.8,16.7-21.2,59.5-29.9,57.1
	c-7.5-2-12-34.4-1.5-66.4c5.3-16.1,16.7-35.4,23.3-42.8c10.8-12,22.5-16,25.5-11.1C293.6,294.5,277,341.1,272.7,351.5z M391,408.1
	c-2.9,1.5-5.6,2.5-6.8,1.7c-0.9-0.5,1.2-2.5,1.2-2.5s14.8-15.9,20.7-23.2c3.3-4.3,7.3-9.2,11.6-14.8v1.6
	C417.7,390,399.3,402.9,391,408.1L391,408.1z M482.3,387.2c-2.1-1.6-1.9-6.5,5.3-22c2.8-6.1,9.2-16.4,20.3-26.2
	c1.3,4,2.1,7.9,2,11.5C509.8,374.6,492.7,383.5,482.3,387.2z"/>
</svg>
