<?xml version="1.0" encoding="utf-8"?>
<!-- Generator: Adobe Illustrator 25.2.1, SVG Export Plug-In . SVG Version: 6.00 Build 0)  -->
<svg version="1.1" id="Layer_1" xmlns="http://www.w3.org/2000/svg" xmlns:xlink="http://www.w3.org/1999/xlink" x="0px" y="0px"
	 viewBox="0 0 525.1 512" style="enable-background:new 0 0 525.1 512;" xml:space="preserve">
<style type="text/css">
	.st0{fill:#330000;}
	.st1{fill:#FF9A00;}
</style>
<g id="Layer_2_1_">
	<g id="Surfaces">
		<g id="Drawing_Surface">
			<g id="Outline_no_shadow">
				<path class="st0" d="M93,0h339.1c51.4,0,93,41.6,93,93v326c0,51.4-41.6,93-93,93H93c-51.4,0-93-41.6-93-93V93
					C0,41.6,41.6,0,93,0z"/>
			</g>
		</g>
	</g>
	<g id="Outlined_Mnemonics_Logos">
		<g id="Ai">
			<path class="st1" d="M254.5,307.2h-81.4l-16.6,51.4c-0.4,2-2.2,3.3-4.2,3.1h-41.1c-2.4,0-3.1-1.3-2.4-3.9l70.5-202.8
				c0.7-2.2,1.3-4.6,2.2-7.2c0.9-4.6,1.3-9.4,1.3-14.2c-0.2-1.1,0.7-2.2,1.8-2.4c0.2,0,0.4,0,0.7,0h56c1.8,0,2.6,0.7,2.8,1.8
				l79.9,225.4c0.7,2.4,0,3.5-2.2,3.5h-45.7c-1.5,0.2-3.1-0.9-3.5-2.4L254.5,307.2z M185.8,262.8h55.6c-1.3-4.6-3.1-10.1-5-15.8
				c-2-5.9-3.9-12.3-5.9-18.8c-2.2-6.8-4.2-13.3-6.3-20.1s-4.2-13.1-5.9-19.5c-1.8-6.1-3.3-11.8-4.8-17.1h-0.4
				c-2,9.4-4.4,18.8-7.4,28.2c-3.3,10.5-6.6,21.4-10.1,32.4C192.3,243.3,189,253.6,185.8,262.8L185.8,262.8z"/>
			<path class="st1" d="M371.5,168.5c-7.2,0.2-14.2-2.6-19.5-7.7c-5-5.5-7.7-12.7-7.4-20.1c-0.2-7.4,2.6-14.4,7.9-19.5
				c5.3-5,12.3-7.7,19.5-7.7c8.5,0,15.1,2.6,19.9,7.7c4.8,5.3,7.4,12.3,7.2,19.5c0.2,7.4-2.4,14.7-7.7,20.1
				C386.4,166.1,379,168.9,371.5,168.5z M347,358.4V189.9c0-2.2,0.9-3.1,2.8-3.1h43.3c2,0,2.8,1.1,2.8,3.1v168.5
				c0,2.4-0.9,3.5-2.8,3.5h-42.9C348.1,361.9,347,360.6,347,358.4z"/>
		</g>
	</g>
</g>
</svg>
