<svg xmlns="http://www.w3.org/2000/svg" viewBox="0 0 512 512"><defs><style>.cls-1{fill:#fff;}.cls-2{fill:#010101;}</style></defs><g id="Layer_2" data-name="Layer 2"><g id="Layer_1-2" data-name="Layer 1"><circle class="cls-1" cx="256" cy="256" r="256"/><path class="cls-2" d="M152.52,199.32h73.93v5.89H159.3v44.32h63.14v5.88H159.3v48.66h67.92V310h-74.7Zm80.55,0h7.85L275.73,248l35.59-48.66,48.37-61.8L280.2,253.09l41,56.87H313l-37.26-51.77L238.31,310h-8l41.27-56.87Zm91,5.89v-5.89h84.23v5.89h-38.8V310h-6.78V205.21H324.09Zm-264-5.89h8.51l116.8,175.16L137.09,310l-70-102.27L66.83,310H60.05Zm347.59,103a2.47,2.47,0,1,1,2.42-2.51v.05a2.39,2.39,0,0,1-2.33,2.46Zm6.66-6.48h3.63a3.32,3.32,0,0,0,3.32,3.31l.27,0c2.36,0,3.7-1.42,3.7-4.08V278.15h3.69V295c0,4.8-2.77,7.56-7.35,7.56-4.3,0-7.26-2.68-7.26-6.78Zm19.43-.21h3.66c.32,2.26,2.52,3.7,5.7,3.7,3,0,5.15-1.55,5.15-3.65,0-1.82-1.39-2.91-4.53-3.66l-3.1-.77c-4.3-1-6.26-3.09-6.26-6.6,0-4.25,3.45-7.08,8.64-7.08,4.84,0,8.37,2.83,8.58,6.84H448c-.34-2.19-2.25-3.57-5-3.57s-4.86,1.41-4.86,3.56c0,1.7,1.25,2.68,4.35,3.41l2.62.64c4.88,1.14,6.89,3.1,6.89,6.72,0,4.56-3.53,7.42-9.17,7.42-5.27,0-8.81-2.73-9.08-7Z"/></g></g></svg>