<?xml version="1.0" encoding="utf-8"?>
<!-- Generator: Adobe Illustrator 25.2.1, SVG Export Plug-In . SVG Version: 6.00 Build 0)  -->
<svg version="1.1" id="Layer_1" xmlns="http://www.w3.org/2000/svg" xmlns:xlink="http://www.w3.org/1999/xlink" x="0px" y="0px"
	 viewBox="0 0 574.1 512" style="enable-background:new 0 0 574.1 512;" xml:space="preserve">
<style type="text/css">
	.st0{fill:#61DAFB;}
</style>
<g>
	<g>
		<circle class="st0" cx="287.1" cy="256" r="51.2"/>
	</g>
	<g>
		<g>
			<path class="st0" d="M287.1,373.3c-74.8,0-145.4-11.2-198.6-31.5C31.4,320,0,289.5,0,256s31.4-64,88.5-85.8
				c53.2-20.3,123.8-31.5,198.6-31.5s145.4,11.2,198.6,31.5c57,21.8,88.5,52.2,88.5,85.8s-31.4,64-88.5,85.8
				C432.4,362.1,361.9,373.3,287.1,373.3z M287.1,163.6c-71.9,0-139.2,10.6-189.7,29.9C51.3,211.1,25,233.9,25,256
				s26.4,44.9,72.4,62.5c50.5,19.3,117.8,29.9,189.7,29.9s139.2-10.6,189.7-29.9c46-17.6,72.4-40.3,72.4-62.5s-26.4-44.9-72.4-62.5
				C426.3,174.3,358.9,163.6,287.1,163.6z"/>
		</g>
		<g>
			<path class="st0" d="M401.7,512c-25.4,0-56.2-14-89.6-41.1c-44.2-35.9-89.2-91.4-126.6-156.2c-37.4-64.8-63-131.5-72-187.8
				c-9.7-60.3,1-102.7,30.1-119.5c29.1-16.8,71.1-4.8,118.5,33.7c44.2,35.9,89.2,91.4,126.6,156.2c37.4,64.8,63,131.5,72,187.8
				c9.7,60.3-1,102.7-30.1,119.5C422,509.6,412.3,512,401.7,512z M172.8,24.9c-6.4,0-12,1.4-16.8,4.1
				c-19.2,11.1-25.7,45.3-17.9,93.9c8.5,53.3,33,117,69,179.2c35.9,62.2,78.8,115.3,120.7,149.3c28.7,23.3,54.4,35.6,73.5,35.6
				c6.4,0,12-1.4,16.8-4.1c19.2-11.1,25.7-45.3,17.9-93.9c-8.5-53.3-33-117-69-179.2c-35.9-62.2-78.8-115.3-120.7-149.3
				C217.6,37.2,191.9,24.9,172.8,24.9z"/>
		</g>
		<g>
			<path class="st0" d="M172.5,512c-10.6,0-20.4-2.4-28.9-7.4c-29.1-16.8-39.7-59.2-30.1-119.5c9-56.3,34.6-123,72-187.8
				c37.4-64.8,82.4-120.3,126.6-156.2C359.4,2.6,401.5-9.4,430.6,7.4c29.1,16.8,39.7,59.2,30.1,119.5c-9,56.3-34.6,123-72,187.8
				l-10.8-6.2l10.8,6.2c-37.4,64.8-82.4,120.3-126.6,156.2C228.7,498,197.9,512,172.5,512z M401.3,24.9c-19.1,0-44.8,12.3-73.5,35.6
				c-41.9,34.1-84.8,87.1-120.7,149.3c-35.9,62.2-60.4,125.9-69,179.2c-7.8,48.6-1.3,82.9,17.9,93.9c19.2,11.1,52.1-0.4,90.3-31.5
				c41.9-34.1,84.8-87.1,120.7-149.3c35.9-62.2,60.4-125.9,69-179.2c7.8-48.6,1.3-82.9-17.9-93.9C413.3,26.3,407.7,24.9,401.3,24.9z
				"/>
		</g>
	</g>
</g>
</svg>
