<svg xmlns="http://www.w3.org/2000/svg" viewBox="0 0 476.18 512"><defs><style>.cls-1{fill:#61dafb;}.cls-2{fill:#05d8fe;}</style></defs><g id="Layer_2" data-name="Layer 2"><g id="Layer_1-2" data-name="Layer 1"><path class="cls-1" d="M239.86,460.82a5,5,0,0,1,.82-.19c7.85-.43,7.86-.43,11.54,6.49q8.23,15.5,16.43,31a9.14,9.14,0,0,0,2.41,3.12V460.8h6.4V511a77.4,77.4,0,0,1-7.78-.1c-.81-.08-1.75-1.15-2.21-2q-9.63-18-19.15-36a6.88,6.88,0,0,0-1.94-2.45V510.8h-6.52Z"/><path class="cls-1" d="M29.79,489.74v21H23.26V461.16c7.08,0,14.11-.56,21,.16,6.7.69,9.94,4.57,11,10.9.93,5.59-.76,12-6.49,14.48a4.06,4.06,0,0,0-.87.76c7.28,6.16,9.43,15.24,14.07,22.92-5.33,1.63-6.91,1-9.19-3.55-1.76-3.48-3.54-6.95-5.26-10.45-2.32-4.73-6-7-11.35-6.66C34.19,489.84,32.2,489.74,29.79,489.74Zm.12-23.31V484a22.43,22.43,0,0,0,2.45.19,83.06,83.06,0,0,0,8.65-.34c4.84-.64,7.31-3.73,7.29-8.63S45.8,467,41,466.51C37.4,466.11,33.71,466.43,29.91,466.43Z"/><path class="cls-1" d="M98.31,504.35c.47,5,.48,5-4.79,6.4a30.16,30.16,0,0,1-15.12.51A16.71,16.71,0,0,1,66.86,502c-4-8.16-2-20.16,4.3-25.53,5.47-4.66,14.4-5.63,20.56-2.22,5.94,3.28,9.18,11.07,7.83,19.32H71.93c-.73,7.13,4.17,12.94,11.29,12.84C88.19,506.37,93.15,505.11,98.31,504.35Zm-4.94-15.82c0-7.14-4.19-11.19-10.9-10.88-6.4.31-11,5.13-10.36,10.88Z"/><path class="cls-1" d="M452.92,493.65h-28.4c-.48,7.07,4.23,12.71,11.16,12.78,4.1,0,8.23-1.14,12.33-1.86a14.84,14.84,0,0,0,2.76-1.05c1,5.3.83,6.06-4,7-4.36.85-9,1.64-13.32,1.08-11.8-1.53-17.76-11.37-15.36-24.3,2-10.67,11.07-16.85,21.69-14.69a14.67,14.67,0,0,1,11.92,11.33C452.47,486.87,452.49,490,452.92,493.65Zm-28.36-5.24H446.2c-.12-6.61-3.95-10.7-9.85-10.78C429.37,477.54,425,481.55,424.56,488.41Z"/><path class="cls-1" d="M110.75,480.38c-1-5.32-.85-5.71,3.93-6.78a42.65,42.65,0,0,1,9.46-1.21c9.42,0,14.5,4.94,15.33,14.45.09,1.09.1,2.2.1,3.3,0,6.79,0,13.58,0,20.62h-6.1c-.13-1.36-.26-2.7-.45-4.73A15.25,15.25,0,0,1,119.84,512c-6.61-.19-11.32-4-12-9.84-.89-7.31,2.25-12.38,9.09-14a48.33,48.33,0,0,1,8.61-.86c2.47-.13,4.95,0,7.38,0,.58-4.55-1.38-7.69-5.58-8.91-4.59-1.34-9.1-.69-13.53.89C112.77,479.55,111.78,480,110.75,480.38Zm22.07,11.41c-4.48.32-9,.4-13.55,1.06-3.78.55-5.6,3.32-5.41,7.09a6.73,6.73,0,0,0,6.15,6.61C128.31,507.71,134.4,501,132.82,491.79Z"/><path class="cls-1" d="M314,487.21c.31-5.41-2.59-9.08-7.89-9.32-3.71-.17-7.47.73-11.2,1.27a16,16,0,0,0-3.05,1.13c-1.09-5-.91-5.69,3.39-6.58a46.79,46.79,0,0,1,11.53-1.2c7.79.35,12.88,5,13.35,12.74.52,8.45.12,16.95.12,25.59h-5.79c-.12-1.49-.23-2.83-.41-4.89-3.73,4.64-8.24,6.19-13.48,6-6.53-.23-11-4-11.86-10.06-.9-6.67,2.12-11.78,8.49-13.6a40.77,40.77,0,0,1,8.58-1.05C308.43,487.08,311.12,487.21,314,487.21Zm-.09,4.55c-4.62.33-9.12.4-13.53,1.06-4.05.61-5.66,3.14-5.44,7.3.2,3.61,2.5,6,6.27,6.44C309.37,507.58,315.18,501.16,313.89,491.76Z"/><path class="cls-1" d="M375.29,473.6c5.77-1.22,6.15-1,7.95,3.89,3.25,8.8,6.53,17.58,10.06,27.05.61-1.38,1-2.19,1.34-3q4.44-11.92,8.85-23.86c1.9-5.16,2-5.23,8.12-4.11-1.13,3.1-2.24,6.16-3.38,9.21-3.18,8.51-6.45,17-9.5,25.53-.78,2.19-1.87,2.85-4.11,2.78-5.45-.15-5.44,0-7.41-5.28q-5.56-14.86-11.14-29.71C375.79,475.33,375.59,474.57,375.29,473.6Z"/><path class="cls-1" d="M190.12,478.29l-4.19-.3v-4.67L190,473V462.62h6.44v10.45h12.58v5H196.54v4c0,5.89,0,11.79.05,17.69.08,4.75,1.13,5.74,5.91,5.9,2.09.07,4.18,0,6.49,0V511c-4.56,0-9.2.59-13.71-1.16-3.09-1.19-4.45-3.78-4.65-6.79-.37-5.37-.39-10.77-.5-16.16C190.07,484.08,190.12,481.3,190.12,478.29Z"/><path class="cls-1" d="M333.07,478.31l-4.21-.31v-4.65l4.07-.41V462.67h6.46v10.39H352v5H339.82a16.46,16.46,0,0,0-.35,2.21c0,6.49-.08,13,0,19.47.1,4.82,1.16,5.77,5.9,5.93,2.09.06,4.17,0,6.51,0v5.2c-4.56.18-9.18.68-13.68-1.07-3.19-1.24-4.58-3.9-4.72-7.05-.3-6.87-.33-13.76-.46-20.65C333.05,480.92,333.07,479.74,333.07,478.31Z"/><path class="cls-1" d="M179.13,480.14c-9.57-3.78-16-3.22-19.88,1.63s-4.1,14.79-.6,19.91c3.69,5.38,9.07,6.07,20.44,2.61,1.21,4.9,1,5.87-3.72,6.62a37.08,37.08,0,0,1-12.69.17,17.09,17.09,0,0,1-8.28-4.95c-5.55-5.7-6.4-17.3-2.37-24.83,3.62-6.76,11.14-10.06,20.07-8.79a29.89,29.89,0,0,1,2.94.57C179.73,474.21,180.16,474.93,179.13,480.14Z"/><path class="cls-1" d="M366.35,510.72h-5.79V473.36h5.79Z"/><path class="cls-2" d="M360.6,458.63h5.76v7.56H360.6Z"/><circle class="cls-1" cx="238.09" cy="212.3" r="42.46"/><path class="cls-1" d="M238.09,309.58c-62,0-120.58-9.29-164.7-26.12C26,265.38,0,240.09,0,212.3s26-53.07,73.39-71.15C117.51,124.32,176.06,115,238.09,115s120.58,9.29,164.69,26.12c47.27,18.08,73.4,43.29,73.4,71.15s-26,53.08-73.4,71.16C358.58,300.29,300.12,309.58,238.09,309.58Zm0-173.9c-59.63,0-115.44,8.79-157.32,24.79-38.23,14.6-60,33.51-60,51.83s21.9,37.24,60,51.83c41.88,16,97.69,24.8,157.32,24.8s115.43-8.79,157.31-24.8c38.15-14.59,60-33.42,60-51.83s-21.89-37.23-60-51.83C353.52,144.55,297.63,135.68,238.09,135.68Z"/><path class="cls-1" d="M333.12,424.6c-21.06,0-46.6-11.61-74.3-34.08-36.65-29.77-74-75.8-105-129.54s-52.24-109-59.71-155.74c-8-50,.83-85.16,25-99.1s59-4,98.27,28c36.65,29.77,74,75.8,105,129.53s52.25,109.06,59.71,155.75c8.05,50-.83,85.16-25,99.09A46.86,46.86,0,0,1,333.12,424.6ZM143.3,20.66a27.93,27.93,0,0,0-13.93,3.4c-15.92,9.2-21.31,37.56-14.85,77.87,7,44.2,27.37,97,57.23,148.6s65.34,95.62,100.09,123.82c23.8,19.32,45.11,29.52,61,29.52a27.93,27.93,0,0,0,13.93-3.4c15.93-9.21,21.32-37.57,14.85-77.87-7.05-44.2-27.37-97-57.22-148.61S239,78.37,204.25,50.18C180.45,30.86,159.14,20.66,143.3,20.66Z"/><path class="cls-1" d="M143.05,424.6a46.6,46.6,0,0,1-24-6.14c-24.14-13.93-32.93-49.09-25-99.09,7.47-46.69,28.7-102,59.71-155.75s68.34-99.76,105-129.53C298.05,2.16,333-7.79,357.09,6.14s32.92,49.1,25,99.1c-7.46,46.69-28.69,102-59.71,155.74l-8.95-5.14,8.95,5.14c-31,53.74-68.33,99.77-105,129.54C189.66,413,164.12,424.6,143.05,424.6ZM332.79,20.66c-15.84,0-37.15,10.2-61,29.52C237.09,78.46,201.52,122.41,171.75,174S121.66,278.4,114.52,322.6c-6.46,40.3-1.07,68.75,14.85,77.87s43.2-.33,74.88-26.12c34.75-28.28,70.33-72.23,100.1-123.82s50.09-104.4,57.22-148.6c6.47-40.31,1.08-68.75-14.85-77.87A27.93,27.93,0,0,0,332.79,20.66Z"/></g></g></svg>