<?xml version="1.0" encoding="utf-8"?>
<!-- Generator: Adobe Illustrator 25.2.1, SVG Export Plug-In . SVG Version: 6.00 Build 0)  -->
<svg version="1.1" id="Layer_1" xmlns="http://www.w3.org/2000/svg" xmlns:xlink="http://www.w3.org/1999/xlink" x="0px" y="0px"
	 viewBox="0 0 858.4 512" style="enable-background:new 0 0 858.4 512;" xml:space="preserve">
<style type="text/css">
	.st0{fill-rule:evenodd;clip-rule:evenodd;fill:#06B6D4;}
</style>
<path class="st0" d="M429.2,0c-114.4,0-186,56.9-214.6,170.7c42.9-56.9,93-78.2,150.2-64c32.7,8.1,55.9,31.6,81.9,57.7
	c41.9,42.5,90.8,91.6,197.1,91.6c114.4,0,186-56.9,214.6-170.7c-42.9,56.9-93,78.2-150.2,64c-32.7-8.1-55.9-31.6-81.9-57.7
	C584.3,48.9,535.6,0,429.2,0z M214.6,256C100.2,256,28.6,312.9,0,426.6c43-56.9,93.1-78.2,150.2-64c32.7,8.1,55.9,31.6,81.9,57.8
	C274,462.8,322.9,512,429.2,512c114.4,0,186-56.9,214.6-170.7c-42.9,56.9-93,78.1-150.2,63.9c-32.7-8.1-55.9-31.6-81.9-57.7
	c-41.9-42.5-90.8-91.7-197.1-91.7L214.6,256z"/>
</svg>
