<?xml version="1.0" encoding="utf-8"?>
<!-- Generator: Adobe Illustrator 25.2.1, SVG Export Plug-In . SVG Version: 6.00 Build 0)  -->
<svg version="1.1" id="Layer_1" xmlns="http://www.w3.org/2000/svg" xmlns:xlink="http://www.w3.org/1999/xlink" x="0px" y="0px"
	 viewBox="0 0 512 512" style="enable-background:new 0 0 512 512;" xml:space="preserve">
<style type="text/css">
	.st0{fill:#3178C6;}
	.st1{fill:#FFFFFF;}
</style>
<path class="st0" d="M0,256V0h512v512H0"/>
<path class="st1" d="M112.3,256.9v20.9h66.6v189.4H226V277.8h66.6v-20.5c0-11.5,0-20.9-0.5-21.1c0-0.4-40.6-0.5-89.9-0.5l-90,0.4v21
	V256.9L112.3,256.9z M411.6,235.3c13.1,3.1,22.8,9.2,31.7,18.6c4.7,5.1,11.8,14.1,12.3,16.4c0,0.8-22.1,15.7-35.6,24.1
	c-0.5,0.4-2.6-1.8-4.6-5.1c-6.7-9.5-13.4-13.6-24.1-14.3c-15.4-1-25.6,7-25.6,20.5c0,4.1,0.8,6.4,2.3,9.7c3.5,7,9.9,11.3,29.7,20
	c36.6,15.7,52.5,26.1,62.1,41c10.9,16.6,13.3,42.8,6,62.3c-8.2,21.4-28.2,35.8-56.7,40.6c-9,1.5-29.4,1.3-39-0.4
	c-20.5-3.8-40.1-14.1-52.1-27.3c-4.7-5.1-13.8-18.8-13.3-19.7l4.9-3.1l19.2-11.1l14.5-8.4l3.3,4.5c4.2,6.7,13.7,15.6,19.2,18.7
	c16.6,8.6,38.9,7.4,49.9-2.6c4.7-4.4,6.8-9,6.8-15.4c0-5.9-0.9-8.6-3.8-13.1c-4.1-5.6-12.3-10.2-35.3-20.5
	c-26.5-11.3-37.8-18.4-48.3-29.4c-6-6.7-11.5-17-14.1-25.6c-1.9-7.4-2.6-25.6-0.8-32.9c5.5-25.6,24.8-43.5,52.5-48.6
	C381.7,232.2,402.8,233,411.6,235.3L411.6,235.3z"/>
</svg>
